<svg width="256" height="256" viewBox="0 0 256 256" fill="none" xmlns="http://www.w3.org/2000/svg">
  <rect width="256" height="256" rx="64" fill="#2A1C12"/>
  <rect x="18" y="18" width="220" height="220" rx="52" fill="#F7F1E8"/>
  <rect x="46" y="46" width="164" height="164" rx="40" fill="#8F2F1C"/>
  <path d="M78 83C78 73.0589 86.0589 65 96 65H146C166.987 65 184 82.0132 184 103C184 114.253 179.069 124.354 171.248 131.23C179.069 138.107 184 148.208 184 159.461C184 180.448 166.987 197.461 146 197.461H96C86.0589 197.461 78 189.402 78 179.461V83Z" fill="#FFF8EF"/>
  <path d="M106 92H144C151.732 92 158 98.268 158 106C158 113.732 151.732 120 144 120H106V92Z" fill="#8F2F1C"/>
  <path d="M106 130H147C156.941 130 165 138.059 165 148C165 157.941 156.941 166 147 166H106V130Z" fill="#8F2F1C"/>
  <rect x="94" y="92" width="12" height="74" rx="5" fill="#E7B887"/>
</svg>
